# xmcd CD database file
#
# Track frame offsets:
#	150
#	39227
#	86179
#	176024
#	208351
#	256803
#
# Disc length: 3858 seconds
#
# Revision: 0
# Processed by: cddbd v1.4PL0 Copyright (c) Steve Scherf et al.
# Submitted via: CDex 1.50Beta7
#
DISCID=4f0f1006
DTITLE=Herbie Mann - At The Village Gate
DYEAR=1964
DGENRE=Jazz
TTITLE0=Com'in Home Baby
TTITLE1=Summertime
TTITLE2=It Ain't Necessarily So
TTITLE3=Memphis Underground (bonus track)
TTITLE4=Chain Of Fools  (bonus track)
TTITLE5=Battle Hymn Of The Republic  (bonus track)
EXTD=YEAR: 1964
EXTT0=
EXTT1=
EXTT2=
EXTT3=
EXTT4=
EXTT5=
PLAYORDER=
